<svg xmlns="http://www.w3.org/2000/svg" class="Path_11_dq" viewBox="117.573 160.872 14.157 9.738">
	<path fill="#ffffff" id="Path_11_dq" d="M 131.6375122070312 161.4867553710938 C 131.3408966064453 160.7145690917969 130.7323608398438 160.8372955322266 130.0726776123047 160.9702606201172 C 129.6788940429688 161.0520782470703 127.9248504638672 161.5634613037109 125.1582641601562 164.4885864257812 C 124.0076522827148 165.7005615234375 123.2508163452148 166.6670684814453 122.7496490478516 167.4034729003906 C 122.4428253173828 167.0301666259766 122.0950775146484 166.6261749267578 121.7268905639648 166.2630920410156 C 120.5967330932617 165.1329193115234 119.3336029052734 164.3556213378906 119.2824783325195 164.324951171875 C 118.755744934082 164.0027770996094 118.0653762817383 164.1664123535156 117.7380905151367 164.6982421875 C 117.4159164428711 165.2249755859375 117.5795593261719 165.9153289794922 118.1062927246094 166.2426147460938 C 118.1165161132812 166.2477416992188 119.2006530761719 166.9176635742188 120.1313705444336 167.8534851074219 C 121.0825500488281 168.8046722412109 121.9467849731445 170.0933380126953 121.9570159912109 170.1086883544922 C 122.1666793823242 170.4257507324219 122.51953125 170.6098480224609 122.8928451538086 170.6098480224609 C 122.9542083740234 170.6098480224609 123.0206832885742 170.6047210693359 123.0871734619141 170.5944976806641 C 123.5269622802734 170.5177917480469 123.8746948242188 170.1905059814453 123.9820861816406 169.7609405517578 C 123.9872055053711 169.7507171630859 124.4321136474609 168.5182952880859 126.7793502807617 166.0431823730469 C 128.6714782714844 164.0436706542969 129.9346008300781 163.4095764160156 130.3743896484375 163.2356872558594 C 130.3795013427734 163.2356872558594 130.3795013427734 163.2356872558594 130.3897399902344 163.2356872558594 C 130.3897399902344 163.2356872558594 130.4050750732422 163.2305755615234 130.4306335449219 163.2152404785156 C 130.5073547363281 163.1845550537109 130.5482482910156 163.1743316650391 130.5482482910156 163.1743316650391 C 130.5278015136719 163.179443359375 130.517578125 163.179443359375 130.517578125 163.179443359375 L 130.517578125 163.1743316650391 C 130.7221374511719 163.08740234375 131.1005401611328 162.9237365722656 131.1056671142578 162.9186248779297 C 131.6732940673828 162.6731719970703 131.8625183105469 162.0595092773438 131.6375122070312 161.4867553710938 Z">
	</path>
</svg>