<svg xmlns="http://www.w3.org/2000/svg" class="icons8_time_1" viewBox="4 2 25.565 28">
	<path fill="#2f3f7d" id="icons8_time_1" d="M 14.347825050354 2 L 14.347825050354 3.826086759567261 L 15.56521606445312 3.826086759567261 L 15.56521606445312 4.494227409362793 C 9.086077690124512 5.109381675720215 4 10.57993030548096 4 17.2173900604248 C 4 24.26547622680664 9.73452091217041 29.99999809265137 16.78260803222656 29.99999809265137 C 23.8306941986084 29.99999809265137 29.56521606445312 24.26547622680664 29.56521606445312 17.2173900604248 C 29.56521606445312 10.57993030548096 24.4791374206543 5.109381675720215 18 4.494227409362793 L 18 3.826086759567261 L 19.21739196777344 3.826086759567261 L 19.21739196777344 2 L 14.347825050354 2 Z M 26.0568790435791 3.91524863243103 L 24.83595657348633 5.13620662689209 L 27.64520835876465 7.945495128631592 L 28.86619186401367 6.72452449798584 L 26.0568790435791 3.91524863243103 Z M 10.69565105438232 10.52173900604248 C 10.85129451751709 10.52173900604248 11.00699901580811 10.58108711242676 11.12599945068359 10.70008659362793 L 16.47113800048828 16.04516410827637 C 16.57157325744629 16.01899147033691 16.67426109313965 16 16.78260803222656 16 C 17.4552173614502 16 18 16.5447826385498 18 17.2173900604248 C 18 17.32573699951172 17.98100852966309 17.42842483520508 17.954833984375 17.52886009216309 L 19.03904342651367 18.61312866210938 C 19.27704238891602 18.85112953186035 19.27704238891602 19.23582458496094 19.03904342651367 19.47382545471191 C 18.92034721374512 19.59251976013184 18.76452255249023 19.65217208862305 18.60869598388672 19.65217208862305 C 18.4528694152832 19.65217208862305 18.29704475402832 19.59251976013184 18.17834663391113 19.47382545471191 L 17.09407806396484 18.38961601257324 C 16.99364280700684 18.41579055786133 16.89095497131348 18.43478202819824 16.78260803222656 18.43478202819824 C 16.11000061035156 18.43478202819824 15.56521606445312 17.8899974822998 15.56521606445312 17.2173900604248 C 15.56521606445312 17.10904312133789 15.58420753479004 17.00635528564453 15.61038112640381 16.90592002868652 L 10.26530361175537 11.56078243255615 C 10.02730369567871 11.32278251647949 10.02730369567871 10.93808650970459 10.26530361175537 10.70008659362793 C 10.38430309295654 10.58108711242676 10.54000759124756 10.52173900604248 10.69565105438232 10.52173900604248 Z">
	</path>
</svg>