<svg xmlns="http://www.w3.org/2000/svg" class="icons8_right" viewBox="7.952 13.091 18.189 12.628">
	<path fill="#2f3f7d" id="icons8_right" d="M 19.53021812438965 13.09236526489258 C 19.33188819885254 13.12748336791992 19.17279815673828 13.27208137512207 19.11700248718262 13.46422481536865 C 19.06120300292969 13.65843200683594 19.11906433105469 13.86501502990723 19.26577568054199 14.00136184692383 L 24.12491989135742 18.86050224304199 L 8.506220817565918 18.86050224304199 C 8.489694595336914 18.86050224304199 8.473166465759277 18.86050224304199 8.456638336181641 18.86050224304199 C 8.165338516235352 18.87494277954102 7.93808126449585 19.12288475036621 7.952546119689941 19.41419410705566 C 7.967006206512451 19.70550537109375 8.214921951293945 19.93271446228027 8.506220817565918 19.91827392578125 L 24.12491989135742 19.91827392578125 L 19.26577568054199 24.77741622924805 C 19.10874938964844 24.9055118560791 19.03645133972168 25.11003303527832 19.08188438415527 25.30836486816406 C 19.1273136138916 25.50463676452637 19.28227806091309 25.65959930419922 19.47854614257812 25.70502853393555 C 19.6768798828125 25.75046157836914 19.88140106201172 25.67816352844238 20.00949859619141 25.52119064331055 L 25.77768707275391 19.76955223083496 L 26.14129638671875 19.38939094543457 L 25.77768707275391 19.00927925109863 L 20.00949859619141 13.25764179229736 C 19.90001678466797 13.13985919952393 19.74092864990234 13.07993602752686 19.57977867126465 13.09236526489258 C 19.56327438354492 13.09236526489258 19.54672241210938 13.09236526489258 19.53021812438965 13.09236526489258 Z">
	</path>
</svg>