<svg xmlns="http://www.w3.org/2000/svg" class="icons8_call" viewBox="4 3.999 29.497 29.498">
	<path fill="#2f3f7d" id="icons8_call" d="M 14.40200424194336 11.40545463562012 C 14.70723152160645 11.9261360168457 14.70081806182861 12.56608581542969 14.39302635192871 13.08420085906982 L 12.82969570159912 15.70812225341797 C 12.47958374023438 16.29549217224121 12.52062225341797 17.0290641784668 12.94127082824707 17.56769752502441 C 13.66843223571777 18.4987678527832 14.89190673828125 19.99797058105469 16.19617652893066 21.3022346496582 C 17.50044822692871 22.60650253295898 18.99965476989746 23.8299732208252 19.93072891235352 24.55713081359863 C 20.46936798095703 24.97777938842773 21.20293617248535 25.0188159942627 21.79030799865723 24.66870307922363 L 24.41423797607422 23.10538101196289 C 24.93235397338867 22.79630661010742 25.57743835449219 22.79373931884766 26.09812164306641 23.09896659851074 L 32.67589950561523 26.95020866394043 C 33.3120002746582 27.32340812683105 33.62492370605469 28.06467247009277 33.44922637939453 28.78156852722168 C 33.27865982055664 29.47794723510742 32.86570358276367 30.3820858001709 31.91795921325684 31.32982635498047 C 28.9503288269043 34.29744720458984 23.94485664367676 35.87359237670898 12.78481388092041 24.71359252929688 C 1.624771595001221 13.55358505249023 3.199641942977905 8.546842575073242 6.16727352142334 5.579219341278076 C 7.117583751678467 4.628915309906006 8.023006439208984 4.217241287231445 8.720669746398926 4.046675682067871 C 9.436285972595215 3.873541831970215 10.1724214553833 4.181334495544434 10.54433917999268 4.816155910491943 C 11.4715633392334 6.401278018951416 13.47349548339844 9.820328712463379 14.40200424194336 11.40545463562012 Z">
	</path>
</svg>