<svg xmlns="http://www.w3.org/2000/svg" class="icons8_game_controller" viewBox="0 0.964 75.018 73.571">
	<path fill="#0eb3e1" id="icons8_game_controller" d="M 65.87491607666016 0.9710103273391724 C 65.81040191650391 0.9827325344085693 65.74588775634766 1.000313639640808 65.68737030029297 1.017896294593811 C 64.98985290527344 1.176138401031494 64.49759674072266 1.803240776062012 64.51514434814453 2.518248558044434 C 64.51514434814453 5.366576671600342 63.19649124145508 6.931399345397949 60.76426696777344 8.472771644592285 C 58.3320426940918 10.0141429901123 54.81566619873047 11.26249599456787 51.19952011108398 12.78628444671631 C 47.58337020874023 14.31008625030518 43.83849334716797 16.14444732666016 40.93156051635742 19.20966720581055 C 38.28824234008789 21.99942207336426 36.45390701293945 25.83237266540527 36.14918518066406 30.97813034057617 C 33.44150161743164 30.77288246154785 31.85322761535645 29.93478393554688 29.96023368835449 28.96195602416992 C 27.76821899414062 27.83669281005859 25.16600799560547 26.52388381958008 21.00493240356445 26.52388381958008 C 18.43797874450684 26.52388381958008 15.98220252990723 28.02423667907715 13.64382839202881 30.22795295715332 C 11.30539417266846 32.43152236938477 9.043132781982422 35.42637252807617 7.032901287078857 38.90179061889648 C 3.012422561645508 45.85262298583984 0 54.63793563842773 0 62.5323371887207 C 0 65.78510284423828 0.8087843656539917 68.68618774414062 2.344300508499146 70.8780517578125 C 3.879820823669434 73.06991577148438 6.253423690795898 74.53516387939453 9.002113342285156 74.53516387939453 C 16.25181579589844 74.53516387939453 21.51475143432617 70.87220001220703 25.88107681274414 67.4554443359375 C 30.24740219116211 64.03854370117188 33.75792694091797 61.03198623657227 37.50880813598633 61.03198623657227 C 41.25968551635742 61.03198623657227 44.77021026611328 64.03854370117188 49.13653564453125 67.4554443359375 C 53.50285720825195 70.87220001220703 58.76579666137695 74.53516387939453 66.0155029296875 74.53516387939453 C 68.76414489746094 74.53516387939453 71.13785552978516 73.06991577148438 72.67330932617188 70.8780517578125 C 74.20877075195312 68.68618774414062 75.01761627197266 65.78510284423828 75.01761627197266 62.5323371887207 C 75.01761627197266 54.63793563842773 72.00520324707031 45.85262298583984 67.98471069335938 38.90179061889648 C 65.97454071044922 35.42637252807617 63.71216201782227 32.43152236938477 61.37385940551758 30.22795295715332 C 59.03540802001953 28.02423667907715 56.57963180541992 26.52388381958008 54.01268005371094 26.52388381958008 C 49.85160446166992 26.52388381958008 47.24939346313477 27.83669281005859 45.05752944946289 28.96195602416992 C 43.2406005859375 29.89382553100586 41.70514297485352 30.68496131896973 39.19670104980469 30.9311695098877 C 39.48971939086914 26.51803207397461 40.96081924438477 23.56414031982422 43.13512802124023 21.27265167236328 C 45.56149673461914 18.71154975891113 48.87862396240234 16.9825439453125 52.37174606323242 15.50574684143066 C 55.86471939086914 14.02877044677734 59.45730590820312 12.83903694152832 62.35839080810547 11.00461578369141 C 65.25947570800781 9.170194625854492 67.51585388183594 6.421504974365234 67.51585388183594 2.518248558044434 C 67.53340911865234 2.084556818008423 67.35756683349609 1.668434143066406 67.04698944091797 1.375400304794312 C 66.73056793212891 1.076500058174133 66.30266571044922 0.9299846887588501 65.87491607666016 0.9710103273391724 Z M 21.00493240356445 29.52458953857422 C 24.5858211517334 29.52458953857422 26.36163902282715 30.46230888366699 28.55365371704102 31.58757400512695 C 30.74551963806152 32.71283721923828 33.34772872924805 34.0256462097168 37.50880813598633 34.0256462097168 C 37.65539169311523 34.0256462097168 37.79012298583984 34.03149795532227 37.93085479736328 34.0256462097168 C 37.94841003417969 34.0256462097168 37.96011352539062 34.0256462097168 37.97766494750977 34.0256462097168 C 41.86327743530273 33.9318733215332 44.36001586914062 32.67187881469727 46.46410751342773 31.58757400512695 C 48.65597152709961 30.46230888366699 50.43178939819336 29.52458953857422 54.01268005371094 29.52458953857422 C 55.31378555297852 29.52458953857422 57.26544570922852 30.46230888366699 59.31087493896484 32.38470840454102 C 61.35615539550781 34.30696105957031 63.46025085449219 37.12597274780273 65.35909271240234 40.40214157104492 C 69.15693664550781 46.95448303222656 72.01690673828125 55.4232177734375 72.01690673828125 62.5323371887207 C 72.01690673828125 65.28099060058594 71.32539367675781 67.63114166259766 70.23523712158203 69.19015502929688 C 69.14508056640625 70.74917602539062 67.76790618896484 71.53445434570312 66.0155029296875 71.53445434570312 C 59.76203155517578 71.53445434570312 55.27267837524414 68.44583129882812 51.01197814941406 65.11114501953125 C 46.75127792358398 61.77631378173828 42.76004028320312 58.03128051757812 37.50880813598633 58.03128051757812 C 32.25757217407227 58.03128051757812 28.26633644104004 61.77631378173828 24.00563621520996 65.11114501953125 C 19.74493598937988 68.44583129882812 15.25558185577393 71.53445434570312 9.002113342285156 71.53445434570312 C 7.249746799468994 71.53445434570312 5.872468948364258 70.74917602539062 4.782372951507568 69.19015502929688 C 3.6922767162323 67.63114166259766 3.000704526901245 65.28099060058594 3.000704526901245 62.5323371887207 C 3.000704526901245 55.4232177734375 5.860751152038574 46.95448303222656 9.658517837524414 40.40214157104492 C 11.55740833282471 37.12597274780273 13.66141223907471 34.30696105957031 15.70688724517822 32.38470840454102 C 17.75216674804688 30.46230888366699 19.70382690429688 29.52458953857422 21.00493240356445 29.52458953857422 Z M 55.51303482055664 40.02705383300781 C 53.85439682006836 40.02705383300781 52.5123291015625 41.36912155151367 52.5123291015625 43.02775955200195 C 52.5123291015625 44.68639755249023 53.85439682006836 46.02846527099609 55.51303482055664 46.02846527099609 C 57.17167282104492 46.02846527099609 58.51373672485352 44.68639755249023 58.51373672485352 43.02775955200195 C 58.51373672485352 41.36912155151367 57.17167282104492 40.02705383300781 55.51303482055664 40.02705383300781 Z M 18.00422668457031 41.52740859985352 L 18.00422668457031 46.02846527099609 L 13.50317001342773 46.02846527099609 L 13.50317001342773 50.52952194213867 L 18.00422668457031 50.52952194213867 L 18.00422668457031 55.03057861328125 L 22.50528335571289 55.03057861328125 L 22.50528335571289 50.52952194213867 L 27.00634002685547 50.52952194213867 L 27.00634002685547 46.02846527099609 L 22.50528335571289 46.02846527099609 L 22.50528335571289 41.52740859985352 L 18.00422668457031 41.52740859985352 Z M 49.51162338256836 46.02846527099609 C 47.85298538208008 46.02846527099609 46.51092147827148 47.37052917480469 46.51092147827148 49.02916717529297 C 46.51092147827148 50.68780517578125 47.85298538208008 52.02987289428711 49.51162338256836 52.02987289428711 C 51.17026138305664 52.02987289428711 52.5123291015625 50.68780517578125 52.5123291015625 49.02916717529297 C 52.5123291015625 47.37052917480469 51.17026138305664 46.02846527099609 49.51162338256836 46.02846527099609 Z M 61.51444244384766 46.02846527099609 C 59.85580444335938 46.02846527099609 58.51373672485352 47.37052917480469 58.51373672485352 49.02916717529297 C 58.51373672485352 50.68780517578125 59.85580444335938 52.02987289428711 61.51444244384766 52.02987289428711 C 63.17308044433594 52.02987289428711 64.51514434814453 50.68780517578125 64.51514434814453 49.02916717529297 C 64.51514434814453 47.37052917480469 63.17308044433594 46.02846527099609 61.51444244384766 46.02846527099609 Z M 55.51303482055664 52.02987289428711 C 53.85439682006836 52.02987289428711 52.5123291015625 53.37194061279297 52.5123291015625 55.03057861328125 C 52.5123291015625 56.68921661376953 53.85439682006836 58.03128051757812 55.51303482055664 58.03128051757812 C 57.17167282104492 58.03128051757812 58.51373672485352 56.68921661376953 58.51373672485352 55.03057861328125 C 58.51373672485352 53.37194061279297 57.17167282104492 52.02987289428711 55.51303482055664 52.02987289428711 Z">
	</path>
</svg>