<svg xmlns="http://www.w3.org/2000/svg" class="icons8_secured_letter" viewBox="0 7 26.523 19.096">
	<path fill="#2f3f7d" id="icons8_secured_letter" d="M 0 7 L 0 8.475329399108887 C 1.597583293914795 9.865679740905762 10.76246452331543 17.85566520690918 11.48770236968994 18.48770141601562 C 12.23362922668457 19.1383056640625 12.9774866104126 19.20047569274902 13.26138687133789 19.20047569274902 C 13.54528617858887 19.20047569274902 14.28914451599121 19.1383056640625 15.03512382507324 18.48770141601562 C 15.78725624084473 17.83290863037109 25.48674201965332 9.376706123352051 26.52277374267578 8.475329399108887 L 26.52277374267578 7 L 0 7 Z M 0 9.88435173034668 L 0 23.19549560546875 L 8.023138999938965 16.86318206787109 C 5.42268705368042 14.60041904449463 1.71362042427063 11.37625789642334 0 9.88435173034668 Z M 26.52277374267578 9.88435173034668 C 24.90445899963379 11.29340076446533 21.13743019104004 14.56726551055908 18.4996337890625 16.86318206787109 L 26.52277374267578 23.17889213562012 L 26.52277374267578 9.88435173034668 Z M 8.83542537689209 17.57595634460449 L 0 24.53818321228027 L 0 26.09639739990234 L 26.52277374267578 26.09639739990234 L 26.52277374267578 24.52163314819336 L 17.68740081787109 17.57595634460449 C 16.65964317321777 18.47109985351562 15.91987037658691 19.11968803405762 15.73134613037109 19.28338623046875 C 14.71393299102783 20.16813278198242 13.66336536407471 20.26138687133789 13.26138687133789 20.26138687133789 C 12.85940837860107 20.26138687133789 11.80884075164795 20.17020225524902 10.79148006439209 19.28338623046875 C 10.60497188568115 19.12175750732422 9.865251541137695 18.47316741943359 8.83542537689209 17.57595634460449 Z">
	</path>
</svg>