<svg xmlns="http://www.w3.org/2000/svg" class="icons8_macbook_settings_1" viewBox="1 0 86.362 74.025">
	<path fill="#0eb3e1" id="icons8_macbook_settings_1" d="M 72.3809814453125 0 C 64.12811279296875 0 57.3997917175293 6.728353977203369 57.3997917175293 14.98119449615479 C 57.3997917175293 16.71589279174805 57.91250228881836 18.29239082336426 58.45658493041992 19.83845138549805 L 45.17602157592773 33.11566925048828 C 42.68667221069336 35.60483551025391 42.68667221069336 39.6934700012207 45.17602157592773 42.18281173706055 C 47.66518783569336 44.67216110229492 51.75716781616211 44.67216110229492 54.24651336669922 42.18281173706055 L 67.52037811279297 28.90559768676758 C 69.06766510009766 29.45091438293457 70.64598083496094 29.96238899230957 72.3809814453125 29.96238899230957 C 80.63385772705078 29.96238899230957 87.36217498779297 23.23406982421875 87.36217498779297 14.98119449615479 C 87.36217498779297 13.33955574035645 87.09075164794922 11.76078414916992 86.60483551025391 10.28924369812012 L 85.73046112060547 7.64206600189209 L 83.71328735351562 9.569792747497559 L 75.49636840820312 17.41838836669922 L 71.16574859619141 16.19634628295898 L 69.94380187988281 11.86584663391113 L 79.72018432617188 1.628240823745728 L 77.06956481933594 0.7573223114013672 C 75.59964752197266 0.2740042805671692 74.02256774902344 0 72.3809814453125 0 Z M 72.3809814453125 3.524986982345581 C 72.57803344726562 3.524986982345581 72.75128173828125 3.604422330856323 72.94551086425781 3.614486455917358 L 66.00569152832031 10.8847713470459 L 68.30873870849609 19.05343627929688 L 76.47402191162109 21.35648536682129 L 83.74430847167969 14.41319561004639 C 83.75452423095703 14.60886764526367 83.83718872070312 14.78284358978271 83.83718872070312 14.98119449615479 C 83.83718872070312 21.32881355285645 78.72860717773438 26.43740272521973 72.3809814453125 26.43740272521973 C 70.69392395019531 26.43740272521973 69.1064453125 26.06463432312012 67.65468597412109 25.40475654602051 L 66.542724609375 24.89874458312988 L 51.75082397460938 39.69047164916992 C 50.60943603515625 40.83186340332031 48.80957412719727 40.83186340332031 47.66818618774414 39.69047164916992 C 46.52679443359375 38.5490837097168 46.52679443359375 36.74922180175781 47.66818618774414 35.60783386230469 L 62.46009063720703 20.81945419311523 L 61.95407485961914 19.70749664306641 C 61.29560852050781 18.25731658935547 60.92477798461914 16.66823577880859 60.92477798461914 14.98119449615479 C 60.92477798461914 8.633539199829102 66.03336334228516 3.524986982345581 72.3809814453125 3.524986982345581 Z M 13.33745384216309 14.09994792938232 C 9.449394226074219 14.09994792938232 6.287480354309082 17.26185989379883 6.287480354309082 21.14992141723633 L 6.287480354309082 59.92477798461914 C 6.287480354309082 61.21527862548828 6.66091775894165 62.40830612182617 7.268555164337158 63.44976425170898 L 2.762493371963501 63.44976425170898 C 1.789311408996582 63.44976425170898 1.000194072723389 64.23872375488281 1.00000011920929 65.21208190917969 C 0.9999998807907104 70.05823516845703 4.966455936431885 74.02472686767578 9.812467575073242 74.02472686767578 L 76.78721618652344 74.02472686767578 C 81.63319396972656 74.02472686767578 85.59968566894531 70.05823516845703 85.59968566894531 65.21225738525391 C 85.59967041015625 64.23907470703125 84.81072235107422 63.44996643066406 83.83736419677734 63.44976425170898 L 79.33119964599609 63.44976425170898 C 79.93873596191406 62.40830612182617 80.31220245361328 61.21527862548828 80.31220245361328 59.92477798461914 L 80.31220245361328 31.68364143371582 C 79.19302368164062 32.21591567993164 78.01567077636719 32.63521194458008 76.78721618652344 32.93659591674805 L 76.78721618652344 59.92477798461914 C 76.78721618652344 61.86880874633789 75.20626068115234 63.44976425170898 73.26222991943359 63.44976425170898 L 13.33745384216309 63.44976425170898 C 11.39342308044434 63.44976425170898 9.812467575073242 61.86880874633789 9.812467575073242 59.92477798461914 L 9.812467575073242 21.14992141723633 C 9.812467575073242 19.20589256286621 11.39342308044434 17.62493515014648 13.33745384216309 17.62493515014648 L 54.08472061157227 17.62493515014648 C 53.96134567260742 16.75955009460449 53.87480545043945 15.88182830810547 53.87480545043945 14.98119449615479 C 53.87480545043945 14.68333339691162 53.90547561645508 14.39428424835205 53.91957092285156 14.09994792938232 L 13.33745384216309 14.09994792938232 Z M 5.251327991485596 66.97475433349609 L 13.33745384216309 66.97475433349609 L 73.26222991943359 66.97475433349609 L 81.34837341308594 66.97475433349609 C 80.57798767089844 68.93552398681641 79.03598785400391 70.49974060058594 76.78721618652344 70.49974060058594 L 9.812467575073242 70.49974060058594 C 7.563790798187256 70.49974060058594 6.0216965675354 68.93552398681641 5.251327991485596 66.97475433349609 Z">
	</path>
</svg>