<svg xmlns="http://www.w3.org/2000/svg" class="icons8_marker" viewBox="9 1 19 28.5">
	<path fill="#2f3f7d" id="icons8_marker" d="M 18.5 1 C 13.26294708251953 1 9 5.262941360473633 9 10.5 C 9 18.8797721862793 17.68590927124023 28.87377166748047 18.0546875 29.29592704772949 C 18.16833114624023 29.42578125 18.32834625244141 29.5 18.5 29.5 C 18.68323135375977 29.48842239379883 18.83166885375977 29.42578125 18.9453125 29.29592704772949 C 19.31409072875977 28.86682510375977 28 18.701171875 28 10.5 C 28 5.262941360473633 23.73705291748047 1 18.5 1 Z M 18.5 7.53125 C 20.466796875 7.53125 22.0625 9.126953125 22.0625 11.09375 C 22.0625 13.060546875 20.466796875 14.65625 18.5 14.65625 C 16.533203125 14.65625 14.9375 13.060546875 14.9375 11.09375 C 14.9375 9.126953125 16.533203125 7.53125 18.5 7.53125 Z">
	</path>
</svg>