<svg xmlns="http://www.w3.org/2000/svg" class="phone_icon" viewBox="11.987 3 47.442 80.203">
    <path fill="#0eb3e1" id="phone_icon" d="M 17.47941970825195 3 C 14.47999954223633 3 12.01101684570312 5.469075202941895 12.01101684570312 8.468402862548828 L 12.01101684570312 13.63063049316406 C 11.97848129272461 13.82747745513916 11.97848129272461 14.02832794189453 12.01101684570312 14.22517395019531 L 12.01101684570312 70.13741302490234 C 11.97847747802734 70.33428192138672 11.97847747802734 70.53514862060547 12.01101684570312 70.73200988769531 L 12.01101684570312 77.73484039306641 C 12.01101684570312 80.73426055908203 14.47999954223633 83.20323944091797 17.47941970825195 83.20323944091797 L 53.93544006347656 83.20323944091797 C 56.93486022949219 83.20323944091797 59.40384292602539 80.73426055908203 59.40384292602539 77.73484039306641 L 59.40384292602539 70.74987030029297 C 59.4363899230957 70.55300903320312 59.4363899230957 70.35213470458984 59.40384292602539 70.1552734375 L 59.40384292602539 14.24298191070557 C 59.43637847900391 14.04613780975342 59.43637847900391 13.8452844619751 59.40384292602539 13.64843845367432 L 59.40384292602539 8.468402862548828 C 59.40384292602539 5.469075202941895 56.93486022949219 3 53.93544006347656 3 L 17.47941970825195 3 Z M 17.47941970825195 6.645602703094482 L 53.93544006347656 6.645602703094482 C 54.94618606567383 6.645602703094482 55.75824356079102 7.457569122314453 55.75824356079102 8.468402862548828 L 55.75824356079102 12.11400508880615 L 15.65661811828613 12.11400508880615 L 15.65661811828613 8.468402862548828 C 15.65661811828613 7.457569122314453 16.46867752075195 6.645602703094482 17.47941970825195 6.645602703094482 Z M 15.65661811828613 15.75960826873779 L 55.75824356079102 15.75960826873779 L 55.75824356079102 68.62084197998047 L 15.65661811828613 68.62084197998047 L 15.65661811828613 15.75960826873779 Z M 47.69453430175781 33.90924072265625 L 31.08280181884766 50.52096939086914 L 23.69553565979004 43.13370132446289 L 21.14288520812988 45.68635559082031 L 31.08280181884766 55.62627410888672 L 50.24718475341797 36.46189117431641 L 47.69453430175781 33.90924072265625 Z M 15.65661811828613 72.26644134521484 L 55.75824356079102 72.26644134521484 L 55.75824356079102 77.73484039306641 C 55.75824356079102 78.74558258056641 54.94618606567383 79.55764770507812 53.93544006347656 79.55764770507812 L 17.47941970825195 79.55764770507812 C 16.46867752075195 79.55764770507812 15.65661811828613 78.74558258056641 15.65661811828613 77.73484039306641 L 15.65661811828613 72.26644134521484 Z M 30.23902893066406 74.08924102783203 C 29.23222160339355 74.08905029296875 28.41604614257812 74.90522766113281 28.41604614257812 75.91203308105469 C 28.41604614257812 76.91883850097656 29.23222160339355 77.73501586914062 30.23902893066406 77.73501586914062 L 41.17583465576172 77.73484039306641 C 42.18264007568359 77.73501586914062 42.99881744384766 76.91883850097656 42.99881744384766 75.91203308105469 C 42.99881744384766 74.90522766113281 42.18264007568359 74.08905029296875 41.17583465576172 74.08905029296875 L 30.23902893066406 74.08924102783203 Z">
    </path>
</svg>