<svg xmlns="http://www.w3.org/2000/svg" class="icons8_services" viewBox="2 2.063 74.075 74.025">
	<path fill="#0eb3e1" id="icons8_services" d="M 50.69520950317383 2.0625 L 49.43620681762695 2.56606912612915 L 44.90408706665039 4.328560829162598 L 43.64524459838867 4.832129955291748 L 43.94738388061523 6.141409873962402 L 44.90408706665039 10.97567272186279 C 44.43194198608398 11.4477710723877 43.92837142944336 12.00169658660889 43.39337921142578 12.5870943069458 L 38.60955047607422 11.5295991897583 L 37.30027389526367 11.22745800018311 L 36.79670333862305 12.4360237121582 L 34.83270263671875 16.96814346313477 L 34.32913589477539 18.17671012878418 L 35.43698883056641 18.93214416503906 L 39.56625366210938 21.70169448852539 C 39.51597595214844 22.48855209350586 39.52226257324219 23.28169250488281 39.56625366210938 24.06854820251465 L 35.33627319335938 26.68710708618164 L 34.17814254760742 27.39210510253906 L 34.68171310424805 28.65094757080078 L 36.44412612915039 33.18307113647461 L 36.94769287109375 34.44207382202148 L 38.25697326660156 34.13993072509766 L 43.09123611450195 33.18307113647461 C 43.58223724365234 33.76850128173828 44.12351226806641 34.29720687866211 44.70265960693359 34.79449081420898 L 43.59480667114258 39.62875747680664 L 43.29266357421875 40.93803405761719 L 44.55166625976562 41.49204254150391 L 49.08378982543945 43.40560531616211 L 50.29235458374023 43.90917205810547 L 51.04763031005859 42.80131912231445 L 53.81734085083008 38.67205429077148 C 54.60403823852539 38.72233200073242 55.39717483520508 38.71604537963867 56.18403244018555 38.67205429077148 L 58.80259323120117 42.95231246948242 L 59.50759124755859 44.06016540527344 L 60.76659393310547 43.60703277587891 L 66.55756378173828 41.29061508178711 L 66.25541687011719 39.9813346862793 L 65.14756774902344 34.69377899169922 C 65.75185394287109 34.18392562866211 66.29941558837891 33.6363639831543 66.80942535400391 33.03208160400391 L 71.69396209716797 34.29092407226562 L 73.05368041992188 34.64350128173828 L 73.5572509765625 33.38449859619141 L 75.52108764648438 28.85237503051758 L 76.07509613037109 27.59353256225586 L 74.86653137207031 26.83809852600098 L 70.63655090332031 24.26997566223145 C 70.68682861328125 23.48311996459961 70.6805419921875 22.68997955322266 70.63655090332031 21.90312194824219 L 74.86653137207031 19.2845630645752 L 76.024658203125 18.57956504821777 L 75.52108764648438 17.32072257995605 L 73.75868225097656 12.7885217666626 L 73.25511169433594 11.5295991897583 L 71.89539337158203 11.8317403793335 L 66.96041870117188 12.9395923614502 C 66.46942138671875 12.35419464111328 65.92814636230469 11.825439453125 65.34899139404297 11.3281717300415 L 66.40657043457031 6.493907928466797 L 66.70870971679688 5.184628486633301 L 65.50014495849609 4.68105936050415 L 60.96802139282227 2.717139720916748 L 59.70901870727539 2.213570594787598 L 58.95374298095703 3.371779918670654 L 56.38545989990234 7.450689315795898 C 55.64275741577148 7.375162124633789 54.8370475769043 7.444388389587402 54.01876831054688 7.501046180725098 L 51.40020751953125 3.220708847045898 L 50.69520950317383 2.0625 Z M 49.33549499511719 6.040696144104004 L 51.70235061645508 9.918177604675293 L 52.30663299560547 10.87495899200439 L 53.41448211669922 10.6231746673584 C 54.55376052856445 10.3713903427124 55.63018798828125 10.50987529754639 57.09045791625977 10.6735315322876 L 58.09759521484375 10.774245262146 L 58.65160369873047 9.918177604675293 L 60.96802139282227 6.242123603820801 L 62.98229598999023 7.098191261291504 L 61.97515869140625 11.4288854598999 L 61.72329330444336 12.4863805770874 L 62.62971878051758 13.09066295623779 C 63.61800003051758 13.7956600189209 64.44257354736328 14.6202564239502 65.14756774902344 15.60858821868896 L 65.75185394287109 16.51501274108887 L 66.80942535400391 16.26314735412598 L 71.24083709716797 15.25601100921631 L 72.04654693603516 17.27028656005859 L 68.16898345947266 19.58670425415039 L 67.31299591064453 20.14070892333984 L 67.41371154785156 21.14784812927246 C 67.564697265625 22.49483489990234 67.564697265625 23.6278247833252 67.41371154785156 24.97497367858887 L 67.31299591064453 25.98211097717285 L 68.16898345947266 26.53595733642578 L 71.99610900878906 28.90281105041504 L 71.19039916992188 30.81637382507324 L 66.70870971679688 29.70852279663086 L 65.60086059570312 29.45665740966797 L 64.99657440185547 30.36308288574219 C 64.29158020019531 31.35136604309082 63.46685409545898 32.17593383789062 62.47872924804688 32.88092803955078 L 61.62258148193359 33.48521423339844 L 61.82400894165039 34.54278945922852 L 62.83114242553711 39.32661437988281 L 60.81686782836914 40.08204650878906 L 58.50045013427734 36.25492095947266 L 57.94660568237305 35.39877700805664 L 56.93946838378906 35.49948883056641 C 55.59232330322266 35.65063858032227 54.45932769775391 35.65063858032227 53.11234283447266 35.49948883056641 L 52.10520553588867 35.39877700805664 L 51.60163497924805 36.20448684692383 L 49.13406753540039 39.9308967590332 L 47.06951141357422 39.02447128295898 L 48.02621459960938 34.69377899169922 L 48.27807998657227 33.68664169311523 L 47.42193222045898 33.03208160400391 C 46.43364715576172 32.32708358764648 45.60908126831055 31.50235939025879 44.90408706665039 30.51423263549805 L 44.2998046875 29.65808486938477 L 43.24238967895508 29.85951232910156 L 38.91169357299805 30.76593589782715 L 38.1562614440918 28.75166130065918 L 41.9833869934082 26.38496589660645 L 42.88980865478516 25.83096122741699 L 42.73881912231445 24.82382202148438 C 42.58766937255859 23.47683525085449 42.58766937255859 22.34368515014648 42.73881912231445 20.99669647216797 L 42.88980865478516 20.03999519348145 L 42.03382110595703 19.48599052429199 L 38.30741119384766 17.01858139038086 L 39.16339874267578 14.95386981964111 L 43.54452896118164 15.9610071182251 L 44.5012321472168 16.16243362426758 L 45.10551452636719 15.40716075897217 C 46.02450561523438 14.33700180053711 46.96879959106445 13.3928050994873 47.77450942993164 12.5870943069458 L 48.37879180908203 11.98281097412109 L 48.22764205932617 11.17710113525391 L 47.32121658325195 6.846406936645508 L 49.33549499511719 6.040696144104004 Z M 55.17689514160156 14.85315608978271 C 50.74548721313477 14.85315608978271 47.11978912353516 18.47885131835938 47.11978912353516 22.91025924682617 C 47.11978912353516 27.34166717529297 50.74548721313477 30.96736717224121 55.17689514160156 30.96736717224121 C 59.60830307006836 30.96736717224121 63.23400497436523 27.34166717529297 63.23400497436523 22.91025924682617 C 63.23400497436523 18.47885131835938 59.60830307006836 14.85315608978271 55.17689514160156 14.85315608978271 Z M 55.17689514160156 18.07599639892578 C 57.86474609375 18.07599639892578 60.01115798950195 20.22240829467773 60.01115798950195 22.91025924682617 C 60.01115798950195 25.59810829162598 57.86474609375 27.7445240020752 55.17689514160156 27.7445240020752 C 52.48904800415039 27.7445240020752 50.34263229370117 25.59810829162598 50.34263229370117 22.91025924682617 C 50.34263229370117 20.22240829467773 52.48904800415039 18.07599639892578 55.17689514160156 18.07599639892578 Z M 20.58177947998047 30.96736717224121 L 20.38035202026367 32.32708358764648 L 19.57464218139648 37.56420135498047 C 18.69964218139648 37.84104537963867 17.85606002807617 38.24390029907227 17.05679702758789 38.67205429077148 L 11.5174560546875 34.64350128173828 L 5.877481937408447 40.28347396850586 L 6.632835865020752 41.39132690429688 L 9.704607009887695 45.82273483276367 C 9.270280838012695 46.68500900268555 8.886311531066895 47.54743957519531 8.596755027770996 48.3908576965332 L 3.309279441833496 49.34771728515625 L 2 49.59942245483398 L 2 57.45510101318359 L 3.309279441833496 57.70696640014648 L 8.596755027770996 58.66366577148438 C 8.880010604858398 59.54495620727539 9.270280838012695 60.3695182800293 9.704607009887695 61.18151473999023 L 6.532121658325195 65.46192932128906 L 5.67605447769165 66.56977844238281 L 11.3160285949707 72.20975494384766 L 12.4238805770874 71.45432281494141 L 16.85536956787109 68.38262939453125 C 17.7176399230957 68.81690979003906 18.58007431030273 69.20091247558594 19.42349243164062 69.49048614501953 L 20.22920227050781 74.72760009765625 L 20.43062973022461 76.087158203125 L 28.33674240112305 76.087158203125 L 28.53816986083984 74.77787780761719 L 29.54531097412109 69.49048614501953 C 30.42015075683594 69.21348571777344 31.26372909545898 68.81063079833984 32.06315231323242 68.38262939453125 L 37.60241317749023 72.41118621826172 L 43.24238967895508 66.77120971679688 L 42.48695373535156 65.66336059570312 L 39.26411056518555 61.18151473999023 C 39.68582153320312 60.33180618286133 40.08867645263672 59.49451446533203 40.37196350097656 58.66366577148438 L 45.81050872802734 57.70696640014648 L 47.11978912353516 57.45510101318359 L 47.11978912353516 49.54914855957031 L 40.32168579101562 48.54200744628906 C 40.04468536376953 47.67329406738281 39.69210433959961 46.82342910766602 39.26411056518555 46.02416229248047 L 42.48695373535156 41.59275436401367 L 43.24238967895508 40.48490142822266 L 42.33596420288086 39.52804183959961 L 38.60955047607422 35.65063858032227 L 37.65269088745117 34.64350128173828 L 36.49456024169922 35.44921112060547 L 32.06315231323242 38.67205429077148 C 31.21329116821289 38.25018692016602 30.37615966796875 37.84733200073242 29.54531097412109 37.56420135498047 L 28.73959732055664 32.32708358764648 L 28.53816986083984 30.96736717224121 L 20.58177947998047 30.96736717224121 Z M 23.3513298034668 34.19020843505859 L 25.76846313476562 34.19020843505859 L 26.67488479614258 39.9308967590332 L 27.5813102722168 40.23303985595703 C 29.02901077270508 40.71775436401367 30.38244247436523 41.1708869934082 31.45886993408203 41.84445953369141 L 32.36529541015625 42.39846420288086 L 33.22128295898438 41.79418182373047 L 37.24983596801758 38.87348175048828 L 39.06268310546875 40.78704452514648 L 36.14198303222656 44.86587524414062 L 35.48742294311523 45.72202301025391 L 36.09170532226562 46.62844467163086 C 36.81555557250977 47.78657531738281 37.38197326660156 49.12727737426758 37.65269088745117 50.3548583984375 L 37.90455627441406 51.41227340698242 L 38.96197128295898 51.56342315673828 L 43.89694595336914 52.31869506835938 L 43.89694595336914 54.7862663269043 L 38.96197128295898 55.64225387573242 L 38.00526809692383 55.79340362548828 L 37.70312881469727 56.6998291015625 C 37.21841049194336 58.14752578735352 36.76512145996094 59.50080108642578 36.09170532226562 60.57722854614258 L 35.48742294311523 61.4836540222168 L 36.14198303222656 62.33980178833008 L 39.06268310546875 66.41863250732422 L 37.24983596801758 68.18120574951172 L 33.22128295898438 65.26050567626953 L 32.36529541015625 64.65621948242188 L 31.45886993408203 65.21006774902344 C 30.30058288574219 65.93391418457031 28.95988082885742 66.50049591064453 27.73246002197266 66.77120971679688 L 26.72532272338867 67.02291107177734 L 26.52389526367188 68.08049011230469 L 25.66774749755859 72.86431884765625 L 23.20034027099609 72.86431884765625 L 22.29391479492188 67.12362670898438 L 21.38748931884766 66.82148742675781 C 19.93962860107422 66.33676910400391 18.58635711669922 65.88363647460938 17.50992965698242 65.21006774902344 L 16.6035041809082 64.65621948242188 L 15.74751567840576 65.26050567626953 L 11.6685266494751 68.03005218505859 L 9.906034469604492 66.26763916015625 L 12.7763786315918 62.39007949829102 L 13.4813756942749 61.4836540222168 L 12.8770923614502 60.57722854614258 C 12.15321063995361 59.41910171508789 11.58669853210449 58.1286735534668 11.3160285949707 56.9012565612793 L 11.06424331665039 55.84368133544922 L 10.00674819946289 55.64225387573242 L 5.222842216491699 54.7862663269043 L 5.222842216491699 52.2684211730957 L 10.00674819946289 51.41227340698242 L 10.96352958679199 51.21084594726562 L 11.2656717300415 50.3548583984375 C 11.7503547668457 48.9069938659668 12.20356750488281 47.5537223815918 12.8770923614502 46.477294921875 L 13.4310188293457 45.57086944580078 L 12.826735496521 44.71488189697266 L 10.05710506439209 40.63589477539062 L 11.86995410919189 38.87348175048828 L 15.8985071182251 41.79418182373047 L 16.75465393066406 42.39846420288086 L 17.66107940673828 41.84445953369141 C 18.81920623779297 41.12060928344727 20.15990829467773 40.55403137207031 21.38748931884766 40.28347396850586 L 22.44490432739258 40.03161239624023 L 22.59605407714844 38.97419738769531 L 23.3513298034668 34.19020843505859 Z M 24.55989456176758 45.47015762329102 C 20.13476943969727 45.47015762329102 16.50278854370117 49.10213851928711 16.50278854370117 53.52726364135742 C 16.50278854370117 57.95238876342773 20.13476943969727 61.58436965942383 24.55989456176758 61.58436965942383 C 28.98501968383789 61.58436965942383 32.61700057983398 57.95238876342773 32.61700057983398 53.52726364135742 C 32.61700057983398 49.10213851928711 28.98501968383789 45.47015762329102 24.55989456176758 45.47015762329102 Z M 24.55989456176758 48.69300079345703 C 27.2288932800293 48.69300079345703 29.39415740966797 50.85842514038086 29.39415740966797 53.52726364135742 C 29.39415740966797 56.19625854492188 27.2288932800293 58.36152648925781 24.55989456176758 58.36152648925781 C 21.89105987548828 58.36152648925781 19.72563171386719 56.19625854492188 19.72563171386719 53.52726364135742 C 19.72563171386719 50.85842514038086 21.89105987548828 48.69300079345703 24.55989456176758 48.69300079345703 Z">
	</path>
</svg>